<svg width="48" height="48" viewBox="0 0 64 64" fill="none" xmlns="http://www.w3.org/2000/svg">
<g clip-path="url(#clip0_510_7)">
<path opacity="0.75" d="M64 10.6667H53.3333V0H44.8V10.6667H34.1333V19.2H44.8V29.8667H53.3333V19.2H64V10.6667Z" fill="#99DB21"/>
<path d="M0 0V29.8667H29.8667V0H0ZM27.7333 27.7333H2.13333V2.13333H27.7333V27.7333Z" fill="#99DB21"/>
<path opacity="0.5" d="M23.4667 6.39999H6.39999V10.6667H23.4667V6.39999Z" fill="#99DB21"/>
<path opacity="0.5" d="M23.4667 19.2H6.39999V23.4667H23.4667V19.2Z" fill="#99DB21"/>
<path opacity="0.5" d="M23.4667 12.8H6.39999V17.0667H23.4667V12.8Z" fill="#99DB21"/>
<path d="M0 34.1333V64H29.8667V34.1333H0ZM17.0667 55.4667H4.26667V42.6667H17.0667V55.4667ZM25.6 55.4667L19.2 51.2V46.9333L25.6 42.6667V55.4667Z" fill="#99DB21"/>
<path d="M59.4739 33.8302L39.8622 53.442L44.3876 57.9674L63.9993 38.3557L59.4739 33.8302Z" fill="#99DB21"/>
<path d="M38.3543 54.9489L33.8289 59.4743L38.3543 63.9998L42.8798 59.4743L38.3543 54.9489Z" fill="#99DB21"/>
<path opacity="0.75" d="M51.2 36.2667H36.2667V51.2H38.4V38.4H51.2V36.2667Z" fill="#99DB21"/>
<path opacity="0.75" d="M46.9333 61.8667H61.8667V46.9333H59.7333V59.7334H46.9333V61.8667Z" fill="#99DB21"/>
</g>
<defs>
<clipPath id="clip0_510_7">
<rect width="64" height="64" fill="white"/>
</clipPath>
</defs>
</svg>
