<svg width="48" height="48" viewBox="0 0 64 64" fill="none" xmlns="http://www.w3.org/2000/svg">
<path d="M31 3.01172V6.01562C31 6.68245 31.5 7.01563 32 7.01563C32.5 7.01563 33 6.68246 33 6.01562V3.01172C33.0075 2.45925 32.5642 2.006 32 2C31.4358 2.00605 30.9937 2.45925 31 3.01172ZM25.1719 5.5957L27.291 7.71484C28.2363 8.6597 29.6543 7.24173 28.709 6.29687L26.582 4.17773C26.3938 3.98418 26.1352 3.87503 25.8652 3.875C24.965 3.87512 24.5232 4.97148 25.1719 5.5957ZM37.418 4.17774L35.291 6.29688C34.3457 7.24174 35.7637 8.65971 36.709 7.71485L38.8281 5.59571C39.4767 4.97149 39.0348 3.87513 38.1347 3.875C37.8649 3.87502 37.6062 3.98419 37.418 4.17774ZM17.1777 10C16.112 10 15.1096 10.534 14.5059 11.4121L4.84179 25.4668C4.63278 25.7704 4.49445 26.121 4.43749 26.4434C2.58624 27.7906 2 29.9863 2 31.6602V40.1719C2 41.7519 2.80685 44.1181 3.55467 46.2324C3.92847 47.2896 4.30914 48.3142 4.57813 49.1699C4.89523 50.1786 4.99803 50.7579 4.99803 51.0098V52C4.45571 52.0147 4.00073 52.4594 4.00194 53.0019V60.9961C3.99982 61.5484 4.44577 61.9978 4.99803 62H21.002C21.5542 61.9978 22.0001 61.5484 21.998 60.9961V53.0019C22 52.5167 21.6379 52.1 21.1601 52.0137C21.2864 51.7725 21.4428 51.5271 21.6504 51.1719C21.9837 50.6019 22.3658 49.8718 22.6367 48.8887L31.1719 58.5781C31.4429 58.9291 31.7897 59 32 59C32.2101 59 32.5885 58.9095 32.8281 58.5781L41.3633 48.8887C41.6342 49.8718 42.0164 50.6019 42.3496 51.1719C42.5571 51.5271 42.7136 51.7725 42.8398 52.0137C42.3623 52.1 42 52.5167 42.002 53.0019V60.9961C41.9999 61.5484 42.4458 61.9978 42.998 62H59.0019C59.5542 61.9978 60.0001 61.5484 59.998 60.9961V53.0019C59.9992 52.4594 59.5443 52.0147 59.0019 52V51.0098C59.0019 50.7579 59.1047 50.1786 59.4219 49.1699C59.691 48.3142 60.0714 47.2896 60.4453 46.2324C61.1931 44.1181 62 41.7519 62 40.1719V31.6602C62 29.9863 61.4137 27.7906 59.5625 26.4434C59.5054 26.121 59.3671 25.7705 59.1582 25.4668L49.4941 11.4121C48.8904 10.534 47.8879 10 46.8223 10C36.9408 10.0057 27.0592 10.0026 17.1777 10ZM17.1777 12L25.3828 12.002L18.3847 26.0059H6.89842L16.1582 12.541C16.3899 12.2038 16.7685 12 17.1777 12ZM46.8223 12C47.2315 12 47.6099 12.2038 47.8418 12.541L57.1015 26.0059H45.6152L38.6172 12.002L46.8223 12ZM27.623 12.0038C30.541 12.0067 33.459 12.0051 36.3769 12.0038L43.3789 26.0057H20.6211L27.623 12.0038ZM7.15429 28.0077H18.3359L28.7207 52.7655L12.9336 34.8339C12.6165 32.4799 11.3047 30.8848 9.81833 30.2811C9.51408 30.1575 9.19539 30.0899 8.87693 30.0546L7.15429 28.0077ZM20.5039 28.0077H43.4961L32 55.4139L20.5039 28.0077ZM45.6641 28.0077H56.8457L55.123 30.0546C54.8044 30.0901 54.4861 30.1575 54.1816 30.2811C52.6953 30.8848 51.3836 32.4799 51.0664 34.8338L35.2793 52.7655L45.6641 28.0077ZM6.7949 30.6854C6.29543 31.1574 6.00195 31.8545 6.00195 32.7089V40.0096C6.00195 41.3433 8.00193 41.3433 8.00193 40.0096V32.7089C8.00193 32.3337 8.1104 32.1596 8.23815 32.0897C8.3659 32.0198 8.66248 31.9695 9.06431 32.1327C9.86807 32.4591 10.932 33.5629 10.9979 35.7421V40.0018C10.9979 40.8342 11.419 41.4959 11.8553 42.0253C12.2917 42.5547 12.7868 43.0226 13.2499 43.5448C14.1129 44.5182 14.9948 45.7753 14.9999 48.0038C15.0037 49.3375 17.0049 49.3296 16.9999 47.9958C16.9923 45.2349 15.898 43.5203 14.7421 42.2166C14.2065 41.6125 13.7102 41.1341 13.3983 40.7557C13.0865 40.3772 12.9999 40.1693 12.9999 40.0017V37.9431L20.9471 46.9685C20.7963 48.5378 20.3752 49.3953 19.9237 50.1677C19.6077 50.7085 19.2176 51.2859 19.0135 51.9978H6.99986V51.0098C6.99986 50.2617 6.77762 49.4927 6.48815 48.5723C6.19902 47.6518 5.81562 46.6157 5.44519 45.5684C4.70429 43.4737 4.00183 41.3944 4.00183 40.1719V31.6602C4.00183 30.688 4.27357 29.4811 5.03313 28.5956L6.7949 30.6854ZM58.9668 28.5956C59.7262 29.4809 59.998 30.6879 59.998 31.66V40.1718C59.998 41.3943 59.2956 43.4736 58.5547 45.5682C58.1843 46.6156 57.801 47.6517 57.5117 48.5721C57.2226 49.4926 57 50.2615 57 51.0096V51.9979H44.9863C44.7822 51.286 44.3922 50.7086 44.0762 50.1678C43.6247 49.3954 43.2033 48.5379 43.0527 46.9686L51 37.9432V40.0018C51 40.1694 50.9134 40.3773 50.6016 40.7557C50.2897 41.1342 49.7934 41.6126 49.2578 42.2167C48.1019 43.5204 47.0064 45.235 47 47.996C46.9962 49.3297 48.9951 49.3374 49 48.0039C49.0038 45.7754 49.887 44.5183 50.75 43.5449C51.213 43.0227 51.7082 42.5548 52.1445 42.0254C52.5808 41.496 53.0019 40.8344 53.0019 40.002V35.7421C53.0677 33.5629 54.1318 32.4592 54.9355 32.1328C55.3374 31.9696 55.634 32.0199 55.7617 32.0898C55.8895 32.1597 55.9979 32.3338 55.9979 32.7089V40.0097C55.9979 41.3434 57.9979 41.3434 57.9979 40.0097V32.7089C57.9979 31.8545 57.7043 31.1574 57.205 30.6855L58.9668 28.5956ZM6.00195 53.9979H19.998V59.9999H6.00195V53.9979ZM44.0019 53.9979H57.998V59.9999H44.0019V53.9979Z" fill="#99DB21"/>
</svg>
