<svg width="48" height="48" viewBox="0 0 64 64" fill="none" xmlns="http://www.w3.org/2000/svg">
<path d="M17 31C17.5523 31 18 30.5523 18 30C18 29.4477 17.5523 29 17 29C16.4477 29 16 29.4477 16 30C16 30.5523 16.4477 31 17 31Z" fill="#99DB21"/>
<path d="M47 31C47.5523 31 48 30.5523 48 30C48 29.4477 47.5523 29 47 29C46.4477 29 46 29.4477 46 30C46 30.5523 46.4477 31 47 31Z" fill="#99DB21"/>
<path d="M32 16C32.5523 16 33 15.5523 33 15C33 14.4477 32.5523 14 32 14C31.4477 14 31 14.4477 31 15C31 15.5523 31.4477 16 32 16Z" fill="#99DB21"/>
<path d="M19.5 38.4C20 38.1 20.1 37.5 19.9 37C19.6 36.5 19 36.4 18.5 36.6C18 36.9 17.9 37.5 18.1 38C18.4 38.5 19 38.6 19.5 38.4Z" fill="#99DB21"/>
<path d="M45.5 23.4C46 23.1 46.1 22.5 45.9 22C45.6 21.5 45 21.4 44.5 21.6C44 21.9 43.9 22.5 44.1 23C44.4 23.5 45 23.6 45.5 23.4Z" fill="#99DB21"/>
<path d="M25.4557 17.2662C25.5986 16.7327 25.282 16.1844 24.7486 16.0415C24.2151 15.8985 23.6668 16.2151 23.5239 16.7486C23.3809 17.282 23.6975 17.8303 24.231 17.9733C24.7644 18.1162 25.3127 17.7996 25.4557 17.2662Z" fill="#99DB21"/>
<path d="M39.7549 17.9666C40.2884 17.8236 40.605 17.2753 40.462 16.7419C40.3191 16.2084 39.7708 15.8918 39.2373 16.0348C38.7039 16.1777 38.3873 16.726 38.5302 17.2595C38.6732 17.7929 39.2215 18.1095 39.7549 17.9666Z" fill="#99DB21"/>
<path d="M19.9 23C20.2 22.5 20 21.9 19.5 21.6C19 21.3 18.4 21.5 18.1 22C17.8 22.5 18 23.1 18.5 23.4C19 23.6 19.6 23.5 19.9 23Z" fill="#99DB21"/>
<path d="M44.1 37C43.8 37.5 44 38.1 44.5 38.4C45 38.7 45.6 38.5 45.9 38C46.2 37.5 46 36.9 45.5 36.6C45 36.4 44.4 36.5 44.1 37Z" fill="#99DB21"/>
<path d="M58 37C60.2 37 62 35.2 62 33C62 30.8 60.2 29 58 29C56.1 29 54.6 30.3 54.1 32H43.8C43.9 31.3 44 30.7 44 30C44 29 43.9 28 43.6 27H54C54.6 27 55 26.6 55 26V19.9C59.5 19.4 63 15.6 63 11C63 6 59 2 54 2C49 2 45 6 45 11C45 15.6 48.5 19.4 53 19.9V25H42.9C41 20.9 36.8 18 32 18C31 18 30 18.1 29 18.4V15C29 14.8 28.9 14.6 28.8 14.4L24.2 8.4C24.7 7.8 25 6.9 25 6C25 3.8 23.2 2 21 2C18.8 2 17 3.8 17 6C17 8.2 18.8 10 21 10C21.6 10 22.1 9.9 22.6 9.7L27 15.4V19.2C22.9 21.1 20 25.3 20 30.1C20 31.1 20.1 32.1 20.4 33.1H10V25C13.4 24.5 16 21.6 16 18.1C16 14.2 12.9 11.1 9 11.1C5.1 11.1 2 14.2 2 18.1C2 21.6 4.6 24.5 8 25V34C8 34.6 8.4 35 9 35H21.1C21.8 36.5 22.8 37.8 24 38.9V40.1C22.8 40.5 22 41.6 22 42.9C22 43.7 22.3 44.4 22.8 44.9C22.3 45.4 22 46.1 22 46.9C22 48.2 22.9 49.3 24.1 49.7C24.5 53.2 27.5 55.9 31 55.9V57.9H18.5C19.5 56.5 20 54.7 20 52.9C20 47.9 16 43.9 11 43.9C6 43.9 2 47.9 2 52.9C2 57.9 6 61.9 11 61.9C13.2 61.9 15.2 61.1 16.7 59.8C16.8 59.8 16.9 59.9 17 59.9H32C32.6 59.9 33 59.5 33 58.9V55.9C34.9 55.9 36.6 55.2 37.8 54L42.2 56.7C42.1 57.2 42 57.6 42 58C42 60.2 43.8 62 46 62C48.2 62 50 60.2 50 58C50 55.8 48.2 54 46 54C44.9 54 44 54.4 43.3 55.1L39.1 52.5C39.6 51.7 39.9 50.8 40 49.8C40.9 49.5 41.6 48.8 41.9 48H48.2C48.7 51.4 51.6 54 55.1 54C59 54 62.1 50.9 62.1 47C62.1 43.1 59 40 55.1 40C51.6 40 48.7 42.6 48.2 46H41.9C41.8 45.6 41.6 45.3 41.3 45C41.8 44.5 42.1 43.8 42.1 43C42.1 41.7 41.3 40.6 40.1 40.2V39C41.6 37.6 42.7 35.9 43.4 34.1H54.2C54.6 35.7 56.1 37 58 37ZM51.4 13C50.6 13.7 50 14.8 50 16V16.7C48.2 15.4 47 13.3 47 11C47 7.1 50.1 4 54 4C57.9 4 61 7.1 61 11C61 13.4 59.8 15.5 58 16.7V16C58 14.9 57.6 13.9 56.8 13.2C56.7 13.1 56.7 13.1 56.6 13C57.4 12.3 58 11.2 58 10C58 7.8 56.2 6 54 6C51.8 6 50 7.8 50 10C50 11.2 50.5 12.3 51.4 13ZM6 18C6 18.8 6.3 19.5 6.8 20C6.3 20.5 6 21.2 6 22C4.8 21.1 4 19.7 4 18C4 15.2 6.2 13 9 13C11.8 13 14 15.2 14 18C14 19.6 13.2 21.1 12 22C12 21.2 11.7 20.6 11.2 20C11.7 19.5 12 18.8 12 18C12 16.3 10.7 15 9 15C7.3 15 6 16.3 6 18ZM15 58.7V58C15 56.9 14.6 55.9 13.8 55.2C13.7 55.1 13.7 55.1 13.6 55C14.4 54.3 15 53.2 15 52C15 49.8 13.2 48 11 48C8.8 48 7 49.8 7 52C7 53.2 7.5 54.3 8.4 55C7.5 55.7 7 56.8 7 58V58.7C5.2 57.4 4 55.3 4 53C4 49.1 7.1 46 11 46C14.9 46 18 49.1 18 53C18 55.4 16.8 57.5 15 58.7ZM55 42C57.8 42 60 44.2 60 47C60 48.6 59.2 50.1 58 51C58 50.2 57.7 49.6 57.2 49C57.7 48.5 58 47.8 58 47C58 45.3 56.7 44 55 44C53.3 44 52 45.3 52 47C52 47.8 52.3 48.5 52.8 49C52.3 49.5 52 50.2 52 51C50.8 50.1 50 48.7 50 47C50 44.2 52.2 42 55 42ZM33 54V53C33 52.4 32.6 52 32 52C31.4 52 31 52.4 31 53V54C28.6 54 26.6 52.3 26.1 50H37.9C37.4 52.3 35.4 54 33 54ZM39 46H25C24.4 46 24 45.6 24 45C24 44.4 24.4 44 25 44H39C39.6 44 40 44.4 40 45C40 45.6 39.6 46 39 46ZM29.7 32.3L27.4 30L29.1 28.3L31.4 29.8C31.7 30 32.2 30 32.5 29.8L34.8 28.3L36.5 30L34.2 32.3C34.1 32.5 34 32.7 34 33V40H30V33C30 32.7 29.9 32.5 29.7 32.3ZM38.4 37.7C38.2 37.9 38 38.2 38 38.5V40H36V33.4L38.7 30.7C39.1 30.3 39.1 29.7 38.7 29.3L35.7 26.3C35.4 26 34.8 25.9 34.4 26.2L32 27.8L29.6 26.2C29.2 25.9 28.7 26 28.3 26.3L25.3 29.3C24.9 29.7 24.9 30.3 25.3 30.7L28 33.4V40H26V38.5C26 38.2 25.9 37.9 25.6 37.7C23.3 35.8 22 33 22 30C22 26.3 24 23.1 27 21.4V22C27 22.6 27.4 23 28 23C28.6 23 29 22.6 29 22V20.5C29.9 20.2 31 20 32 20C35.7 20 38.9 22 40.6 25H40C39.4 25 39 25.4 39 26C39 26.6 39.4 27 40 27H41.5C41.8 27.9 42 29 42 30C42 33 40.7 35.8 38.4 37.7Z" fill="#99DB21"/>
</svg>
